<svg xmlns="http://www.w3.org/2000/svg" xmlns:xlink="http://www.w3.org/1999/xlink" version="1.1" id="Layer_2" x="0px" y="0px" viewBox="0 0 1080 1080" style="enable-background:new 0 0 1080 1080;" xml:space="preserve">
<style type="text/css">
	.st0{fill:#F0FAFF;}
	.st1{fill:#B0E1FF;}
	.st2{fill:#CCEEFF;}
	.st3{fill:#F2F2F2;}
	.st4{fill:#FFBE55;}
	.st5{opacity:0.1;}
	.st6{fill:#161616;}
	.st7{opacity:0.1;fill:#161616;}
	.st8{fill:#F7869E;}
	.st9{fill:#0E538C;}
	.st10{fill:#FFDDAB;}
	.st11{opacity:0.11;}
	.st12{fill:#1A1A1A;}
	.st13{fill:#FFD18F;}
</style>
<g>
	<path class="st0" d="M322.4,201c-26,11.4-51.8,25.2-69.9,46.9s-27.3,53-16.4,79.2c14.6,34.9,60.7,55.3,60.9,93.1   c0.2,27.1-24.9,47.8-50.1,57.7c-25.3,9.9-53.2,13.4-76.2,27.8c-34.7,21.7-50.9,63.8-57.6,104.2c-6.9,41.9-4.1,89.6,25.6,120   c36.9,37.8,97.8,33.5,150,25.5c69.6-10.8,139-23.4,208.3-36c151.9-27.7,303.9-55.4,455.8-83.1c16.3-3,33.2-6.2,46.5-16.2   c26.3-19.8,28.5-60.6,13.2-89.7c-15.3-29.1-43.5-48.9-71.6-66s-57.7-33.3-78.8-58.6c-21-25.3-31.5-62.7-15.6-91.5   c13.5-24.4,42.4-37.4,55.1-62.3c16.6-32.7-2.5-74.5-32.7-95.4C838.7,135.8,459.6,141.1,322.4,201z"/>
</g>
<g>
	<g>
		<circle class="st1" cx="144.6" cy="688" r="122.4"/>
	</g>
	<g>
		<g>
			<path class="st2" d="M144.6,930c-1.5,0-2.8-1.3-2.8-2.8V688c0-1.5,1.3-2.8,2.8-2.8c1.5,0,2.8,1.3,2.8,2.8v239.2     C147.4,928.7,146.1,930,144.6,930z"/>
		</g>
		<g>
			<path class="st2" d="M144.6,754.2c-0.7,0-1.4-0.3-2-0.8l-34.3-34.3c-1.1-1.1-1.1-2.9,0-4c1.1-1.1,2.9-1.1,4,0l34.3,34.3     c1.1,1.1,1.1,2.9,0,4C146,754,145.3,754.2,144.6,754.2z"/>
		</g>
		<g>
			<path class="st2" d="M144.6,786.1c-0.7,0-1.4-0.3-2-0.8L108.3,751c-1.1-1.1-1.1-2.9,0-4c1.1-1.1,2.9-1.1,4,0l34.3,34.3     c1.1,1.1,1.1,2.9,0,4C146,785.8,145.3,786.1,144.6,786.1z"/>
		</g>
	</g>
</g>
<g>
	<g>
		<path class="st2" d="M1004.4,603.9c35,19,58.8,56.1,58.8,98.8c0,62-50.3,112.3-112.3,112.3c-47.8,0-88.7-29.9-104.9-72.1    L1004.4,603.9z"/>
	</g>
	<g>
		<circle class="st1" cx="830.8" cy="565.7" r="177.7"/>
	</g>
	<g>
		<g>
			<path class="st2" d="M830.8,917c-2.2,0-4.1-1.8-4.1-4.1V565.7c0-2.2,1.8-4.1,4.1-4.1c2.2,0,4.1,1.8,4.1,4.1v347.2     C834.8,915.2,833,917,830.8,917z"/>
		</g>
		<g>
			<path class="st2" d="M830.8,661.9c-1,0-2.1-0.4-2.9-1.2l-49.8-49.8c-1.6-1.6-1.6-4.2,0-5.7c1.6-1.6,4.2-1.6,5.7,0l49.8,49.8     c1.6,1.6,1.6,4.2,0,5.7C832.8,661.5,831.8,661.9,830.8,661.9z"/>
		</g>
		<g>
			<path class="st2" d="M830.8,708.1c-1,0-2.1-0.4-2.9-1.2l-49.8-49.8c-1.6-1.6-1.6-4.2,0-5.7c1.6-1.6,4.2-1.6,5.7,0l49.8,49.8     c1.6,1.6,1.6,4.2,0,5.7C832.8,707.7,831.8,708.1,830.8,708.1z"/>
		</g>
		<g>
			<path class="st2" d="M950.2,916.9c-2-0.3-3.3-2.2-3.3-4.2V730.8c0-2.2,1.6-4.2,3.8-4.3c2.3-0.1,4.3,1.7,4.3,4.1v182.4     C955,915.4,952.8,917.4,950.2,916.9z"/>
		</g>
		<g>
			<path class="st2" d="M950.9,757.2c-1,0-2.1-0.4-2.9-1.2c-1.6-1.6-1.6-4.2,0-5.7l35.9-35.9c1.6-1.6,4.2-1.6,5.7,0     c1.6,1.6,1.6,4.2,0,5.7L953.8,756C953,756.8,952,757.2,950.9,757.2z"/>
		</g>
		<g>
			<path class="st2" d="M950.9,790.5c-1,0-2.1-0.4-2.9-1.2c-1.6-1.6-1.6-4.2,0-5.7l35.9-35.9c1.6-1.6,4.2-1.6,5.7,0     c1.6,1.6,1.6,4.2,0,5.7l-35.9,35.9C953,790.1,952,790.5,950.9,790.5z"/>
		</g>
	</g>
</g>
<path class="st3" d="M1022,1025H58c-7.4,0-13.5-6.1-13.5-13.5v-84c0-7.4,6.1-13.5,13.5-13.5h964c7.4,0,13.5,6.1,13.5,13.5v84  C1035.5,1018.9,1029.4,1025,1022,1025z"/>
<g>
	<g>
		<path class="st4" d="M449.5,378.7c33.6,18,67.3,36,100.9,54c1.5,0.8,3.2,1.8,3.7,3.5c0.4,1.2,0,2.6-0.4,3.8    c-6.1,16.7-25.4,26.4-43.1,24.4c-17.7-1.9-33.3-13.6-43.5-28.2c-8.5-12.2-13.7-26.3-17.6-40.7C447.9,390,448,384.2,449.5,378.7    L449.5,378.7z"/>
	</g>
	<path class="st4" d="M721.4,902.1c0,2.2,0,4.1,0,5.9c-0.1,9.9-0.7,13.8-2.7,15.9c-1.2,1.2-2.8,1.8-5.1,2.6   c0,0-22.8-51.9-48.7-120.3c-77-29.9-110.4-100.2-94.7-124.6c25.9-30.7,88.4-23.2,75.8,13c-25.9,32.2,44.8,85.7,44.8,85.7   S721.4,880.9,721.4,902.1z"/>
	<path class="st4" d="M389.8,636.5c-47.2,24.4-93.5,73.9-93.5,73.9s18.1,95.1,23.6,100.6c18.5-16.1,2-93.1,2-93.1   c6.3-0.8,86.1-48.3,86.1-48.3L389.8,636.5z"/>
	<g class="st5">
		<path class="st6" d="M449.5,378.7c33.6,18,67.3,36,100.9,54c1.5,0.8,3.2,1.8,3.7,3.5c0.4,1.2,0,2.6-0.4,3.8    c-6.1,16.7-25.4,26.4-43.1,24.4c-17.7-1.9-33.3-13.6-43.5-28.2c-8.5-12.2-13.7-26.3-17.6-40.7C447.9,390,448,384.2,449.5,378.7    L449.5,378.7z"/>
	</g>
	<path class="st7" d="M721.4,902.1c0,2.2,0,4.1,0,5.9c-0.1,9.9-0.7,13.8-2.7,15.9c-1.2,1.2-2.8,1.8-5.1,2.6   c0,0-22.8-51.9-48.7-120.3c-77-29.9-110.4-100.2-94.7-124.6c25.9-30.7,88.4-23.2,75.8,13c-25.9,32.2,44.8,85.7,44.8,85.7   S721.4,880.9,721.4,902.1z"/>
	<path class="st7" d="M389.8,636.5c-47.2,24.4-93.5,73.9-93.5,73.9s18.1,95.1,23.6,100.6c18.5-16.1,2-93.1,2-93.1   c6.3-0.8,86.1-48.3,86.1-48.3L389.8,636.5z"/>
	<g>
		<path class="st8" d="M349.4,410.5c-4.2-2.1-8.7-3.7-13.3-4.8c-4.6-1.2-9.3-1.9-13.8-2.1c-4.6-0.2-9.1,0.3-13.1,1.5    c-4,1.2-7.4,3.4-9.6,6.2c-2,2.6-5.8,3-8.4,1c-2.6-2-3-5.8-1-8.4c0.1-0.1,0.2-0.3,0.3-0.4l0.1-0.1c2.2-2.3,4.8-4.2,7.5-5.6    c2.7-1.4,5.6-2.4,8.4-3c5.7-1.2,11.2-1.2,16.6-0.6c5.3,0.6,10.5,1.9,15.5,3.6c5,1.7,9.7,3.9,14.3,6.6c1.7,1,2.2,3.1,1.2,4.8    C353.1,410.8,351.1,411.3,349.4,410.5L349.4,410.5z"/>
	</g>
	<path class="st4" d="M912.4,861.8c0,2.3-0.2,4.5-0.8,6.3c-1,2.7-3,4.4-6.7,3.8c-13.4-2.4-91.2-89.6-124.2-112.4   c-110.8,25.2-142.3-52.7-142.3-52.7s-17.3-36.2-112.4-5.5c-66.9,17.1-115.8-10.2-146.2-51.4c-4.2-5.6-8-11.5-11.4-17.5   c-4.1-7.1-5.4-25.3-5.2-48.1c0.4-51.4,8.8-126.1,12-149.5c-39.6-6.2-51.9-20.4-62.9-34.6c14.1-1.6,44.7,4.9,46.4,1.6   c-5.7-0.6-39.3-13.3-48.4-18.5c0.9-13.1,8.2-25.7,16.8-34.1c0.7-0.7,1.4-1.3,2-1.9c3.9-3.4,7.9-5.9,11.8-7.2c0,0,0,0,0,0   c1.5-0.5,2.9-0.9,4.3-1c0,0,0,0,0,0c4.6,5.2,9,9.9,13.1,13.9c0.5,0.5,1,1,1.5,1.4c0.1,0.1,0.2,0.2,0.2,0.2   c20.6,19.2,37.1,24.1,58.2,22.2c22.4,1.2,47.5-28.7,46.8,104.9c-0.1,16,1.7,29.9,4.9,42c15.5,57.9,64.8,76.1,110.4,84.2   c25.1,4.4,49,5.8,65.4,9c52.7,10.2,95.9,92,105.3,104.5c9.4,12.6,57.4,11,57.4,11l94.5,106.3c1.8,2.1,3.4,4.3,4.8,6.7   C910.7,850.3,912.3,856,912.4,861.8z"/>
	<path class="st4" d="M427.5,675.8c-32.2,35.4-51.9,98.2-52.7,106.9c-0.8,8.6,47.2,107.7,47.2,107.7c10.2,0-2.4-86.5-16.5-103.7   c4.7-29.9,61.3-73.1,64.4-92C460.5,677.4,427.5,675.8,427.5,675.8z"/>
	<circle class="st9" cx="391.7" cy="387.7" r="7.9"/>
	<path class="st9" d="M361,355.2c-19.7,7.6-28.4,1.4-33.8-6c0.7-0.7,1.4-1.3,2.1-1.9c3.9-3.4,7.9-5.9,11.8-7.2c0,0,0,0,0,0   c1.5-0.5,2.9-0.8,4.3-1c0.1,0,0.1,0,0.2,0c5.1,5.7,9.8,10.8,14.4,15.3c0.1,0.1,0.2,0.2,0.2,0.2C360.5,354.8,360.7,355,361,355.2z"/>
	<g>
		<path class="st10" d="M499.3,511.8c-1.2-0.2-2.4-0.4-3.6-0.6l3.8,0.5C499.4,511.7,499.3,511.7,499.3,511.8z"/>
	</g>
	<g class="st11">
		<path class="st12" d="M580.5,607.9c-2.1,8.4-6.5,16.2-13.2,21.6c-11.7,9.4-28.6,10.3-43,6c-14.4-4.3-27-13.1-39.3-21.8    c-10.2-7.2-20.5-14.4-28.3-24.1c-7.8-9.7-12.9-22.3-10.9-34.6c1.9-12,10.4-22.1,20.4-28.9c1.3-0.9,2.6-1.7,4-2.5    C485.6,581.6,535,599.8,580.5,607.9z"/>
	</g>
	<g class="st11">
		<path class="st12" d="M541.9,660.5c-7.7,0.2-12.8,1.2-19,4.6c-4.3,2.4-8.6,5.9-9.8,10.7c-1.6,6.6,3.4,13.6,9.8,16    c6.4,2.5,13.6,1.4,20.1-0.7c6.5-2,12.8-5,19.4-6.4c5.3-1.1,11.4-1.5,15-5.6c3.5-4.2,2.7-10.9-0.9-15.1s-9.3-5.9-14.8-6.1    c-5.5-0.2-10.9,1-16.3,1.9L541.9,660.5z"/>
	</g>
	<g>
		<path class="st9" d="M332.2,554.1l0.4-0.3C332.5,553.9,332.4,554,332.2,554.1C332.2,554.1,332.2,554.1,332.2,554.1z"/>
	</g>
	<g class="st11">
		<path class="st12" d="M379.9,650c-4.2-5.6-8-11.5-11.4-17.5c-4.1-7.1-5.4-25.3-5.2-48.1c2.3,3.7,4.3,7.6,7,11    c4.3,5.5,10.2,9.5,15.4,14.1c5.2,4.7,10,10.4,11,17.3C398.2,637.1,390,647.3,379.9,650z"/>
	</g>
	<g class="st11">
		<path class="st12" d="M440.3,607.3c2.1,1,3.6,2.8,5,4.6c3.7,4.7,7.4,9.3,11.1,14c5,6.3,10,12.6,13.3,19.9    c3.3,7.3,4.9,15.7,2.6,23.3c-1,3.4-3.1,6.9-7.6,6.3c-1.5-0.2-2.9-1-4.1-1.9c-8.1-6.6-9.3-18.5-16.4-25.9    c-5.7-5.9-15.1-8.9-17.8-16.7c-1.4-4.1-0.6-8.6,1.3-12.5c1.1-2.2,2.5-4.2,4-6.2C433.8,609.6,436.9,607.9,440.3,607.3L440.3,607.3z    "/>
	</g>
	<g class="st11">
		<path class="st12" d="M616.3,621.7c14.1-3.4,29.8,1.1,39.8,11.5c4.2,4.3,7.5,9.7,8,15.7c0.6,6-2,12.4-7.3,15.4    c-6.1,3.4-13.9,1.3-20-2.2c-6.1-3.5-11.4-8.4-18-10.9c-3.8-1.4-7.9-2.1-11.2-4.3c-5-3.4-7.2-10.4-5.1-16c2.2-5.6,8.5-9.4,14.5-8.5    "/>
	</g>
	<path class="st4" d="M677.3,628.2c3.1,0.7,6.4,1.1,9.7,1.2c3.3,0,6.7-0.4,10-1.1c3.3-0.7,6.6-1.8,9.9-3.1c3.2-1.4,6.3-3.1,9.3-5   c11.9-7.7,20.7-20.1,25.8-34.3c1.3-3.5,2.3-7.2,3.2-10.9c0.8-3.7,1.5-7.5,1.9-11.3c0.4-3.8,0.6-7.7,0.6-11.6   c0-3.9-0.2-7.8-0.5-11.7c-1.4-15.7-5.4-31.3-10.6-46.5l0,0c-0.6-1.9,0.4-3.9,2.2-4.5c1.8-0.6,3.7,0.3,4.4,2   c6.5,15.2,11.9,31,14.7,47.7c0.7,4.2,1.2,8.4,1.5,12.7c0.3,4.3,0.4,8.6,0.3,12.9c-0.2,4.3-0.6,8.6-1.2,12.9   c-0.7,4.3-1.6,8.6-2.7,12.8c-1.2,4.2-2.7,8.4-4.4,12.5c-1.8,4.1-3.9,8-6.3,11.9c-2.4,3.8-5.1,7.4-8.2,10.9   c-3.1,3.4-6.5,6.5-10.1,9.4c-3.7,2.8-7.6,5.3-11.7,7.5c-4.2,2.1-8.5,3.9-13.1,5.3c-4.6,1.3-9.3,2.2-14.1,2.6   c-4.8,0.3-9.8,0.1-14.7-0.6c-6-0.9-10.1-6.4-9.2-12.4c0.9-6,6.4-10.1,12.4-9.2c0.3,0,0.5,0.1,0.8,0.1L677.3,628.2z"/>
	<g>
		<path class="st13" d="M442.9,383.5c17.5,33.9,35.1,67.8,52.6,101.6c0.8,1.5,1.6,3.3,1.1,4.9c-0.4,1.2-1.5,2.1-2.5,2.9    c-14.5,10.4-35.9,7.4-49.4-4.2c-13.5-11.6-19.7-30.1-19.9-47.9c-0.1-14.9,3.6-29.5,8.5-43.6C435.3,392,438.6,387.2,442.9,383.5    L442.9,383.5z"/>
	</g>
</g>
<ellipse class="st3" cx="615.5" cy="959" rx="379.5" ry="10"/>
<circle class="st4" cx="846.5" cy="170.5" r="83.5"/>
<g>
	<path class="st4" d="M249.4,289.5c-2.6-3.5-7.7-0.1-10,2c-1.9,1.6-3.5,3.4-5,5.4c-0.8,1-1.5,2-2.3,2.9c-0.8,0.9-1.8,1.6-2.6,2.6   c-0.3,0.4,0.1,0.9,0.5,0.7c1.6-0.6,2.9-2.3,3.9-3.5c1.4-1.6,2.6-3.2,4-4.7c1.4-1.5,2.9-3.2,4.5-4.4c2.2-1.7,4.4-2,6.8-0.7   C249.4,289.7,249.5,289.6,249.4,289.5L249.4,289.5z"/>
	<path class="st4" d="M253.2,286.1c1.4-2.3-0.7-4.7-3-5.3c-2.7-0.7-5.5,0.6-7.6,2.3c-2.7,2.4-4.5,5.6-6.5,8.5c-2.3,3.5-4.6,7-7,10.3   c-0.5,0.7,0.5,1.4,1,0.8c3.2-5,6.7-9.9,10.1-14.8c1.5-2.2,3.2-4.5,5.7-5.7c3-1.4,7.7-0.5,6.9,3.7   C252.9,286.2,253.1,286.3,253.2,286.1L253.2,286.1z"/>
	<path class="st4" d="M229,300c-3.3,4.6-8.2,7.7-13,10.7c-13,8.3-29.5,10-44.8,9.2c-5.5-0.3-11.1-1.1-16.2-3.4   c-0.7-0.3-1.4-0.7-2.1-1c-5.6-3-10.2-8.3-11.1-14.5c-1.3-8.3,4.3-16.7,11.7-20.7c15.7-8.4,36.2-4.3,49,7.9   c-3.6-6.4-9.3-11.4-13.9-17.1c-4.7-5.7-8.5-12.9-7.3-20.1c0.7-4.2,3.1-7.9,6.2-10.8c3.1-2.9,6.8-4.9,10.7-6.6c8.2-3.4,17.1-5,26-5   c4.1,0,8.3,0.4,12.2,1.8c3.9,1.4,7.5,3.8,9.7,7.3c2.3,3.6,2.9,8.1,2.5,12.3c-0.4,4.3-1.6,8.4-2.9,12.4c-0.8,2.5-1.6,5-2.4,7.4   C239.8,280.5,235.6,290.9,229,300z"/>
	<path class="st0" d="M234.2,279.8c-1.1,5.1-2.8,10.4-5.2,15.2c-1.3,2.5-2.7,5-4.6,7.1c-1.8,2-4.5,2.6-7,3.5   c-11.5,4.1-23.7,6.4-36,6.7c-5.4,0.1-11.1-0.3-15.4-3.5c-2.1-1.6-3.8-4.3-2.9-6.8c0.7-1.9,2.7-3,4.6-3.7c9.2-3.4,19.5-2.3,29.2-1.2   c4.3,0.5,8.7,1,13,1.5c3.1,0.4,6.6,0.7,9.2-1.1c-5-9.9-14.1-16.9-21.8-24.8c-1.9-2-3.8-4.2-4.2-6.8c-0.7-5.4,4.2-6.2,8.1-4.9   c4.6,1.5,8.6,4.9,11.5,8.7c3.7,5,6,10.9,8.3,16.7c-2.6-8.9-5.2-17.8-7.9-26.6c-0.5-1.7-1-3.5-0.6-5.2c0.8-3.3,4.8-4.9,8.2-4.6   c6.2,0.6,11.2,5.7,13.2,11.6C236,267.3,235.5,273.8,234.2,279.8z"/>
	<path class="st9" d="M203.5,328.6c0-0.1,0-0.3,0-0.4c-0.1-1-0.2-2.1,0.1-3.1c0.2-0.8,0.7-1.5,1.1-2.3c1.6-2.5,2.7-5,4.8-7   c2.3-2.2,4.8-4.2,7.5-5.8c1.3-0.8,2.6-1.6,3.6-2.6c1.6-1.7,2.4-4.1,3.7-6c1.4-1.9,4-3.4,6.1-2.2c1.8,1,2.1,3.8,0.8,5.5   c-2.2,2.8-6.5,1.3-9.3,3.5c-8.2,6.2-12.5,13.9-14.1,24c-0.1,0.6-0.3,1.4-0.9,1.6c-0.3,0.1-0.5,0-0.8-0.1c-1-0.4-1.6-1.3-2-2.3   C203.7,330.4,203.6,329.5,203.5,328.6z"/>
</g>
</svg>